<svg width="40" height="40" viewBox="0 0 40 40" fill="none" xmlns="http://www.w3.org/2000/svg">
<path d="M35.5556 0H4.44444C1.97778 0 0 1.97778 0 4.44444V13.3333H4.44444V4.44444H35.5556V35.5556H4.44444V26.6667H0V35.5556C0 36.7343 0.468252 37.8648 1.30175 38.6983C2.13524 39.5317 3.2657 40 4.44444 40H35.5556C36.7343 40 37.8648 39.5317 38.6983 38.6983C39.5317 37.8648 40 36.7343 40 35.5556V4.44444C40 1.97778 38 0 35.5556 0ZM15.7333 27.9556L18.8889 31.1111L30 20L18.8889 8.88889L15.7333 12.0222L21.4889 17.7778H0V22.2222H21.4889L15.7333 27.9556Z" fill="black"/>
</svg>
